<svg id="meteorite" enable-background="new 0 0 300 300" height="512" viewBox="0 0 300 300" width="512" xmlns="http://www.w3.org/2000/svg"><circle cx="114.146" cy="127.446" fill="#edebdc" r="90"/><g fill="#4c241d"><path d="m33.061 146.554c-1.023 0-2.047-.391-2.828-1.172-1.562-1.562-1.562-4.094 0-5.656l14.172-14.172c1.562-1.562 4.094-1.562 5.656 0s1.562 4.094 0 5.656l-14.172 14.172c-.782.781-1.805 1.172-2.828 1.172z"/><path d="m47.232 146.554c-1.023 0-2.047-.391-2.828-1.172l-14.172-14.172c-1.562-1.562-1.562-4.094 0-5.656s4.094-1.562 5.656 0l14.172 14.172c1.562 1.562 1.562 4.094 0 5.656-.781.781-1.804 1.172-2.828 1.172z"/><path d="m201.061 262.554c-1.023 0-2.047-.391-2.828-1.172-1.562-1.562-1.562-4.094 0-5.656l14.172-14.172c1.562-1.562 4.094-1.562 5.656 0s1.562 4.094 0 5.656l-14.172 14.172c-.782.781-1.805 1.172-2.828 1.172z"/><path d="m215.232 262.554c-1.023 0-2.047-.391-2.828-1.172l-14.172-14.172c-1.562-1.562-1.562-4.094 0-5.656s4.094-1.562 5.656 0l14.172 14.172c1.562 1.562 1.562 4.094 0 5.656-.781.781-1.804 1.172-2.828 1.172z"/><path d="m105.061 66.554c-1.023 0-2.047-.391-2.828-1.172-1.562-1.562-1.562-4.094 0-5.656l14.172-14.172c1.562-1.562 4.094-1.562 5.656 0s1.562 4.094 0 5.656l-14.172 14.172c-.782.781-1.805 1.172-2.828 1.172z"/><path d="m119.232 66.554c-1.023 0-2.047-.391-2.828-1.172l-14.172-14.172c-1.562-1.562-1.562-4.094 0-5.656s4.094-1.562 5.656 0l14.172 14.172c1.562 1.562 1.562 4.094 0 5.656-.781.781-1.804 1.172-2.828 1.172z"/><circle cx="40.146" cy="253.446" r="4"/><circle cx="76.146" cy="93.446" r="4"/><circle cx="32.146" cy="49.446" r="4"/><circle cx="244.146" cy="225.446" r="4"/><circle cx="248.146" cy="65.446" r="4"/></g><circle cx="110.633" cy="202.109" fill="#fc8c29" r="44"/><path d="m110.635 250.087c-12.293 0-24.582-4.68-33.941-14.037-9.066-9.066-14.059-21.119-14.059-33.941 0-12.82 4.992-24.875 14.059-33.939 18.715-18.719 49.168-18.715 67.883 0 18.711 18.713 18.711 49.164 0 67.881-9.36 9.356-21.649 14.036-33.942 14.036zm0-87.959c-10.246 0-20.484 3.898-28.285 11.697-7.555 7.555-11.715 17.6-11.715 28.283 0 10.686 4.16 20.73 11.715 28.285 15.594 15.598 40.977 15.598 56.57 0s15.594-40.973 0-56.568c-7.797-7.797-18.043-11.697-28.285-11.697zm31.113 71.094h.039z" fill="#4c241d"/><path d="m110.631 272.376c-18 0-36.004-6.854-49.707-20.559-27.41-27.408-27.41-72.008 0-99.418l110.308-110.308c1.562-1.562 4.094-1.562 5.656 0s1.562 4.094 0 5.656l-110.308 110.309c-24.289 24.291-24.289 63.816 0 88.105 11.766 11.766 27.41 18.246 44.051 18.246 16.645 0 32.289-6.48 44.055-18.246l76.367-76.367c1.562-1.562 4.094-1.562 5.656 0s1.562 4.094 0 5.656l-76.367 76.367c-13.703 13.705-31.707 20.559-49.711 20.559z" fill="#4c241d"/><circle cx="127.604" cy="204.937" fill="#e66353" r="10"/><path d="m127.604 218.937c-3.738 0-7.254-1.455-9.898-4.098-5.461-5.461-5.461-14.342 0-19.801 5.297-5.289 14.52-5.285 19.797 0 5.457 5.459 5.457 14.34 0 19.799-2.642 2.644-6.157 4.1-9.899 4.1zm0-19.999c-1.602 0-3.109.623-4.242 1.758-2.34 2.338-2.34 6.145 0 8.484 2.27 2.271 6.223 2.264 8.484 0 2.34-2.34 2.34-6.146 0-8.486-1.133-1.132-2.637-1.756-4.242-1.756z" fill="#4c241d"/><circle cx="90.834" cy="182.31" fill="#4c241d" r="4"/><circle cx="94.146" cy="219.446" fill="#e66353" r="6"/><path d="m94.146 229.44c-2.562 0-5.121-.975-7.07-2.924-1.891-1.887-2.93-4.398-2.93-7.07s1.039-5.184 2.93-7.072c3.895-3.895 10.238-3.9 14.141.002 1.891 1.887 2.93 4.398 2.93 7.07s-1.039 5.184-2.93 7.072c-1.949 1.948-4.512 2.922-7.071 2.922zm0-11.992c-.512 0-1.023.195-1.414.584-.512.51-.586 1.105-.586 1.414s.074.904.586 1.412c.781.781 2.047.779 2.828.002v-.002c.512-.508.586-1.104.586-1.412s-.074-.904-.586-1.412c-.39-.39-.902-.586-1.414-.586z" fill="#4c241d"/><path d="m206.17 54.003c-1.023 0-2.047-.391-2.828-1.172-1.562-1.562-1.562-4.094 0-5.656l18.379-18.379c1.562-1.562 4.094-1.562 5.656 0s1.562 4.094 0 5.656l-18.379 18.379c-.781.781-1.805 1.172-2.828 1.172z" fill="#4c241d"/><path d="m116.291 143.884c-1.023 0-2.047-.391-2.828-1.172-1.562-1.562-1.562-4.094 0-5.656l72.844-72.846c1.562-1.562 4.094-1.562 5.656 0s1.562 4.094 0 5.656l-72.844 72.846c-.781.781-1.805 1.172-2.828 1.172z" fill="#4c241d"/><path d="m220.975 112.737c-1.023 0-2.047-.391-2.828-1.172-1.562-1.562-1.562-4.096 0-5.656l7.039-7.037c1.562-1.562 4.094-1.562 5.656 0s1.562 4.096 0 5.656l-7.039 7.037c-.782.782-1.805 1.172-2.828 1.172z" fill="#4c241d"/><path d="m171.443 162.269c-1.023 0-2.047-.391-2.828-1.172-1.562-1.562-1.562-4.094 0-5.656l32.047-32.047c1.562-1.562 4.094-1.562 5.656 0s1.562 4.094 0 5.656l-32.047 32.047c-.781.781-1.804 1.172-2.828 1.172z" fill="#4c241d"/><path d="m140.33 153.782c-1.023 0-2.047-.391-2.828-1.172-1.562-1.562-1.562-4.094 0-5.656l31.113-31.111c1.562-1.562 4.094-1.562 5.656 0s1.562 4.094 0 5.656l-31.113 31.111c-.781.782-1.804 1.172-2.828 1.172z" fill="#4c241d"/><path d="m179.932 193.382c-1.023 0-2.047-.391-2.828-1.172-1.562-1.562-1.562-4.094 0-5.656l91.922-91.924c1.562-1.562 4.094-1.562 5.656 0s1.562 4.094 0 5.656l-91.922 91.924c-.781.781-1.805 1.172-2.828 1.172z" fill="#4c241d"/></svg>